<mxfile host="Electron" modified="2025-05-17T11:38:44.713Z" agent="Mozilla/5.0 (Macintosh; Intel Mac OS X 10_15_7) AppleWebKit/537.36 (KHTML, like Gecko) draw.io/24.5.1 Chrome/124.0.6367.207 Electron/30.0.6 Safari/537.36" etag="ig7dTEy_xjaDv9oj_YgE" version="24.5.1" type="device">
  <diagram id="fq6LKdQoe5oR_RmR_Lg7" name="v.0.0.1">
    <mxGraphModel dx="2074" dy="1214" grid="1" gridSize="10" guides="1" tooltips="1" connect="1" arrows="1" fold="1" page="1" pageScale="1" pageWidth="827" pageHeight="1169" math="0" shadow="0">
      <root>
        <mxCell id="0" />
        <mxCell id="1" parent="0" />
        <mxCell id="ktmQaqimeyDCuL5vyVLQ-3" value="Объект" style="swimlane;horizontal=0;whiteSpace=wrap;html=1;" parent="1" vertex="1">
          <mxGeometry x="10" y="60" width="540" height="460" as="geometry" />
        </mxCell>
        <mxCell id="ktmQaqimeyDCuL5vyVLQ-2" value="Предметная область" style="swimlane;whiteSpace=wrap;html=1;" parent="ktmQaqimeyDCuL5vyVLQ-3" vertex="1">
          <mxGeometry x="40" y="20" width="400" height="180" as="geometry">
            <mxRectangle x="640" y="200" width="140" height="30" as="alternateBounds" />
          </mxGeometry>
        </mxCell>
        <mxCell id="YQVP3gHkuVCf9oPB3yVh-1" value="&lt;font style=&quot;font-size: 14px;&quot;&gt;Справочник&lt;br&gt;(Номенклатура)&lt;/font&gt;" style="whiteSpace=wrap;html=1;align=center;" parent="ktmQaqimeyDCuL5vyVLQ-2" vertex="1">
          <mxGeometry x="10" y="30" width="160" height="40" as="geometry" />
        </mxCell>
        <mxCell id="YQVP3gHkuVCf9oPB3yVh-2" value="&lt;span style=&quot;font-size: 14px;&quot;&gt;Алгоритм&lt;/span&gt;&lt;br style=&quot;font-size: 14px;&quot;&gt;&lt;span style=&quot;font-size: 14px;&quot;&gt;(Отчет Обороты)&lt;/span&gt;" style="whiteSpace=wrap;html=1;align=center;" parent="ktmQaqimeyDCuL5vyVLQ-2" vertex="1">
          <mxGeometry x="10" y="130" width="160" height="40" as="geometry" />
        </mxCell>
        <mxCell id="YQVP3gHkuVCf9oPB3yVh-3" value="&lt;span style=&quot;font-size: 14px;&quot;&gt;Сущность&lt;/span&gt;&lt;br style=&quot;font-size: 14px;&quot;&gt;&lt;span style=&quot;font-size: 14px;&quot;&gt;(Партия товара)&lt;/span&gt;" style="whiteSpace=wrap;html=1;align=center;" parent="ktmQaqimeyDCuL5vyVLQ-2" vertex="1">
          <mxGeometry x="10" y="80" width="160" height="40" as="geometry" />
        </mxCell>
        <mxCell id="YQVP3gHkuVCf9oPB3yVh-4" value="&lt;span style=&quot;font-size: 14px;&quot;&gt;Документ&lt;/span&gt;&lt;br style=&quot;font-size: 14px;&quot;&gt;&lt;span style=&quot;font-size: 14px;&quot;&gt;(Перемещение&lt;/span&gt;&lt;span style=&quot;font-size: 14px; background-color: initial;&quot;&gt;)&lt;/span&gt;" style="whiteSpace=wrap;html=1;align=center;" parent="ktmQaqimeyDCuL5vyVLQ-2" vertex="1">
          <mxGeometry x="180" y="30" width="200" height="40" as="geometry" />
        </mxCell>
        <mxCell id="YQVP3gHkuVCf9oPB3yVh-5" value="&lt;span style=&quot;font-size: 14px;&quot;&gt;Табличная часть документа&lt;/span&gt;&lt;br style=&quot;font-size: 14px;&quot;&gt;&lt;span style=&quot;font-size: 14px;&quot;&gt;(Перечень номенклатуры&lt;/span&gt;&lt;span style=&quot;font-size: 14px; background-color: initial;&quot;&gt;)&lt;/span&gt;" style="whiteSpace=wrap;html=1;align=center;" parent="ktmQaqimeyDCuL5vyVLQ-2" vertex="1">
          <mxGeometry x="180" y="80" width="200" height="40" as="geometry" />
        </mxCell>
        <mxCell id="ktmQaqimeyDCuL5vyVLQ-1" value="Представление" style="swimlane;whiteSpace=wrap;html=1;" parent="ktmQaqimeyDCuL5vyVLQ-3" vertex="1">
          <mxGeometry x="40" y="220" width="480" height="220" as="geometry">
            <mxRectangle x="590" y="200" width="130" height="30" as="alternateBounds" />
          </mxGeometry>
        </mxCell>
        <mxCell id="Ino7nTq0qInvRV9QSzYZ-1" value="&lt;span style=&quot;font-size: 14px;&quot;&gt;Визуализация&lt;br&gt;(Отклонение плана от факта)&lt;/span&gt;" style="whiteSpace=wrap;html=1;align=center;" parent="ktmQaqimeyDCuL5vyVLQ-1" vertex="1">
          <mxGeometry x="10" y="40" width="200" height="40" as="geometry" />
        </mxCell>
        <mxCell id="J8iefksTNt8TPK55-U8C-1" value="Виды визуализаций:&lt;br&gt;Линейная диаграмма&lt;br&gt;Столбчатая диаграмма&lt;br&gt;...&lt;br&gt;Таблица&lt;br&gt;см. Yandex DataLens" style="shape=note;size=20;whiteSpace=wrap;html=1;align=left;" parent="ktmQaqimeyDCuL5vyVLQ-1" vertex="1">
          <mxGeometry x="10" y="90" width="170" height="100" as="geometry" />
        </mxCell>
        <mxCell id="G2nw5Nv14xkxSHaJ6PGr-1" value="&lt;span style=&quot;font-size: 14px;&quot;&gt;Форма редактрования/создания&lt;br&gt;(Справочника, Сущности, ...)&lt;/span&gt;" style="whiteSpace=wrap;html=1;align=center;" parent="ktmQaqimeyDCuL5vyVLQ-1" vertex="1">
          <mxGeometry x="220" y="40" width="230" height="40" as="geometry" />
        </mxCell>
        <mxCell id="G2nw5Nv14xkxSHaJ6PGr-2" value="&lt;span style=&quot;font-size: 14px;&quot;&gt;Форма ввода&lt;br&gt;(Ввод параметров для формирования отчета и т.п.)&lt;/span&gt;" style="whiteSpace=wrap;html=1;align=center;" parent="ktmQaqimeyDCuL5vyVLQ-1" vertex="1">
          <mxGeometry x="220" y="90" width="230" height="55" as="geometry" />
        </mxCell>
        <mxCell id="G2nw5Nv14xkxSHaJ6PGr-3" value="&lt;span style=&quot;font-size: 14px;&quot;&gt;Помощник (визард)&lt;br&gt;(Несколько форм ввода, идущих друг за другом)&lt;/span&gt;" style="whiteSpace=wrap;html=1;align=center;" parent="ktmQaqimeyDCuL5vyVLQ-1" vertex="1">
          <mxGeometry x="220" y="150" width="230" height="55" as="geometry" />
        </mxCell>
        <mxCell id="GXTz7LjhXrPer3yg0kRa-1" value="РеквизитОбъекта" style="swimlane;whiteSpace=wrap;html=1;" parent="1" vertex="1">
          <mxGeometry x="570" y="60" width="240" height="160" as="geometry" />
        </mxCell>
        <mxCell id="oMnu4V65Orwc3S5V675z-1" value="&lt;span style=&quot;font-size: 14px;&quot;&gt;Реквизит-простого типа&lt;br&gt;(строка,число, дата, время...)&lt;/span&gt;" style="whiteSpace=wrap;html=1;align=center;" parent="GXTz7LjhXrPer3yg0kRa-1" vertex="1">
          <mxGeometry x="20" y="40" width="200" height="40" as="geometry" />
        </mxCell>
        <mxCell id="oMnu4V65Orwc3S5V675z-2" value="&lt;span style=&quot;font-size: 14px;&quot;&gt;Реквизит-ссылка&lt;/span&gt;&lt;div&gt;&lt;span style=&quot;font-size: 14px;&quot;&gt;на Объект&lt;/span&gt;&lt;/div&gt;" style="whiteSpace=wrap;html=1;align=center;" parent="GXTz7LjhXrPer3yg0kRa-1" vertex="1">
          <mxGeometry x="20" y="100" width="200" height="40" as="geometry" />
        </mxCell>
        <mxCell id="_foPFWuZzgpBULtXBcK9-1" value="Объект" style="whiteSpace=wrap;html=1;align=center;" parent="1" vertex="1">
          <mxGeometry x="370" y="580" width="100" height="40" as="geometry" />
        </mxCell>
        <mxCell id="_foPFWuZzgpBULtXBcK9-2" value="РеквизитОбъекта" style="whiteSpace=wrap;html=1;align=center;" parent="1" vertex="1">
          <mxGeometry x="640" y="580" width="120" height="40" as="geometry" />
        </mxCell>
        <mxCell id="_foPFWuZzgpBULtXBcK9-3" value="" style="endArrow=none;html=1;rounded=0;entryX=0;entryY=0.5;entryDx=0;entryDy=0;exitX=1;exitY=0.5;exitDx=0;exitDy=0;" parent="1" source="_foPFWuZzgpBULtXBcK9-1" target="_foPFWuZzgpBULtXBcK9-2" edge="1">
          <mxGeometry relative="1" as="geometry">
            <mxPoint x="450" y="610" as="sourcePoint" />
            <mxPoint x="610" y="610" as="targetPoint" />
          </mxGeometry>
        </mxCell>
        <mxCell id="_foPFWuZzgpBULtXBcK9-4" value="ВидОбъекта" style="whiteSpace=wrap;html=1;align=center;" parent="1" vertex="1">
          <mxGeometry x="180" y="580" width="100" height="40" as="geometry" />
        </mxCell>
        <mxCell id="_foPFWuZzgpBULtXBcK9-5" value="" style="endArrow=none;html=1;rounded=0;exitX=1;exitY=0.5;exitDx=0;exitDy=0;entryX=0;entryY=0.5;entryDx=0;entryDy=0;" parent="1" source="_foPFWuZzgpBULtXBcK9-4" target="_foPFWuZzgpBULtXBcK9-1" edge="1">
          <mxGeometry relative="1" as="geometry">
            <mxPoint x="450" y="610" as="sourcePoint" />
            <mxPoint x="610" y="610" as="targetPoint" />
          </mxGeometry>
        </mxCell>
        <mxCell id="KuThPHC6WRPhEZ3YF_II-1" value="Представление" style="whiteSpace=wrap;html=1;align=center;" parent="1" vertex="1">
          <mxGeometry x="370" y="650" width="100" height="40" as="geometry" />
        </mxCell>
        <mxCell id="KuThPHC6WRPhEZ3YF_II-2" value="" style="endArrow=none;html=1;rounded=0;entryX=0.5;entryY=1;entryDx=0;entryDy=0;exitX=0.5;exitY=0;exitDx=0;exitDy=0;" parent="1" source="KuThPHC6WRPhEZ3YF_II-1" target="_foPFWuZzgpBULtXBcK9-1" edge="1">
          <mxGeometry relative="1" as="geometry">
            <mxPoint x="450" y="670" as="sourcePoint" />
            <mxPoint x="610" y="670" as="targetPoint" />
          </mxGeometry>
        </mxCell>
        <mxCell id="Fzz86vDRq51pPCUExh2M-1" value="Право" style="whiteSpace=wrap;html=1;align=center;" parent="1" vertex="1">
          <mxGeometry x="640" y="720" width="130" height="40" as="geometry" />
        </mxCell>
        <mxCell id="DgB6Pb0CpGbAWGmTDNvb-2" value="" style="endArrow=none;html=1;rounded=0;exitX=1;exitY=0.5;exitDx=0;exitDy=0;entryX=0.5;entryY=0;entryDx=0;entryDy=0;" parent="1" source="KuThPHC6WRPhEZ3YF_II-1" target="Fzz86vDRq51pPCUExh2M-1" edge="1">
          <mxGeometry relative="1" as="geometry">
            <mxPoint x="450" y="440" as="sourcePoint" />
            <mxPoint x="690" y="720" as="targetPoint" />
          </mxGeometry>
        </mxCell>
        <mxCell id="uybocwGz_FOA6bRTelbn-6" value="Экран" style="whiteSpace=wrap;html=1;align=center;" parent="1" vertex="1">
          <mxGeometry x="370" y="720" width="100" height="40" as="geometry" />
        </mxCell>
        <mxCell id="uybocwGz_FOA6bRTelbn-8" value="Источник данных" style="whiteSpace=wrap;html=1;align=center;" parent="1" vertex="1">
          <mxGeometry x="180" y="720" width="130" height="40" as="geometry" />
        </mxCell>
        <mxCell id="uybocwGz_FOA6bRTelbn-9" value="" style="endArrow=none;html=1;rounded=0;exitX=0;exitY=0.5;exitDx=0;exitDy=0;entryX=1;entryY=0.5;entryDx=0;entryDy=0;" parent="1" source="uybocwGz_FOA6bRTelbn-6" target="uybocwGz_FOA6bRTelbn-8" edge="1">
          <mxGeometry relative="1" as="geometry">
            <mxPoint x="440" y="890" as="sourcePoint" />
            <mxPoint x="600" y="890" as="targetPoint" />
          </mxGeometry>
        </mxCell>
        <mxCell id="uybocwGz_FOA6bRTelbn-12" value="&lt;span style=&quot;font-size: 14px;&quot;&gt;Модуль&lt;/span&gt;&lt;br style=&quot;font-size: 14px;&quot;&gt;&lt;span style=&quot;font-size: 14px;&quot;&gt;(единица развертывания)&lt;/span&gt;" style="whiteSpace=wrap;html=1;align=center;" parent="1" vertex="1">
          <mxGeometry x="40" y="830" width="190" height="50" as="geometry" />
        </mxCell>
        <mxCell id="uybocwGz_FOA6bRTelbn-13" value="" style="endArrow=none;html=1;rounded=0;exitX=0.5;exitY=1;exitDx=0;exitDy=0;entryX=0.5;entryY=0;entryDx=0;entryDy=0;" parent="1" source="uybocwGz_FOA6bRTelbn-8" target="uybocwGz_FOA6bRTelbn-12" edge="1">
          <mxGeometry relative="1" as="geometry">
            <mxPoint x="440" y="890" as="sourcePoint" />
            <mxPoint x="600" y="890" as="targetPoint" />
          </mxGeometry>
        </mxCell>
        <mxCell id="J90l-yEcoeT0y28Pm198-1" value="Страница" style="whiteSpace=wrap;html=1;align=center;" parent="1" vertex="1">
          <mxGeometry x="370" y="840" width="100" height="40" as="geometry" />
        </mxCell>
        <mxCell id="J90l-yEcoeT0y28Pm198-2" value="" style="endArrow=none;html=1;rounded=0;exitX=0.5;exitY=1;exitDx=0;exitDy=0;entryX=0.5;entryY=0;entryDx=0;entryDy=0;" parent="1" source="uybocwGz_FOA6bRTelbn-6" target="J90l-yEcoeT0y28Pm198-1" edge="1">
          <mxGeometry relative="1" as="geometry">
            <mxPoint x="440" y="820" as="sourcePoint" />
            <mxPoint x="600" y="820" as="targetPoint" />
          </mxGeometry>
        </mxCell>
        <mxCell id="J90l-yEcoeT0y28Pm198-5" value="" style="endArrow=none;html=1;rounded=0;exitX=0.5;exitY=0;exitDx=0;exitDy=0;entryX=0.5;entryY=1;entryDx=0;entryDy=0;" parent="1" source="uybocwGz_FOA6bRTelbn-6" target="KuThPHC6WRPhEZ3YF_II-1" edge="1">
          <mxGeometry relative="1" as="geometry">
            <mxPoint x="440" y="820" as="sourcePoint" />
            <mxPoint x="600" y="820" as="targetPoint" />
          </mxGeometry>
        </mxCell>
        <mxCell id="J90l-yEcoeT0y28Pm198-6" value="Главное меню" style="whiteSpace=wrap;html=1;align=center;" parent="1" vertex="1">
          <mxGeometry x="170" y="930" width="100" height="40" as="geometry" />
        </mxCell>
        <mxCell id="J90l-yEcoeT0y28Pm198-7" value="" style="endArrow=none;html=1;rounded=0;exitX=0.5;exitY=0;exitDx=0;exitDy=0;entryX=0;entryY=0.5;entryDx=0;entryDy=0;" parent="1" source="J90l-yEcoeT0y28Pm198-6" target="J90l-yEcoeT0y28Pm198-1" edge="1">
          <mxGeometry relative="1" as="geometry">
            <mxPoint x="440" y="970" as="sourcePoint" />
            <mxPoint x="600" y="970" as="targetPoint" />
          </mxGeometry>
        </mxCell>
        <mxCell id="J90l-yEcoeT0y28Pm198-9" value="Рабочее место" style="whiteSpace=wrap;html=1;align=center;" parent="1" vertex="1">
          <mxGeometry x="370" y="930" width="100" height="40" as="geometry" />
        </mxCell>
        <mxCell id="J90l-yEcoeT0y28Pm198-10" value="" style="endArrow=none;html=1;rounded=0;exitX=1;exitY=0.5;exitDx=0;exitDy=0;entryX=0;entryY=0.5;entryDx=0;entryDy=0;" parent="1" source="J90l-yEcoeT0y28Pm198-6" target="J90l-yEcoeT0y28Pm198-9" edge="1">
          <mxGeometry relative="1" as="geometry">
            <mxPoint x="440" y="960" as="sourcePoint" />
            <mxPoint x="600" y="960" as="targetPoint" />
          </mxGeometry>
        </mxCell>
        <mxCell id="DW2UDxUGNQBwvL69CKuD-1" value="" style="endArrow=none;html=1;rounded=0;exitX=1;exitY=0.5;exitDx=0;exitDy=0;entryX=0;entryY=0.5;entryDx=0;entryDy=0;" parent="1" source="J90l-yEcoeT0y28Pm198-9" target="oVjClMRvE_nj_OxCvAcx-2" edge="1">
          <mxGeometry relative="1" as="geometry">
            <mxPoint x="440" y="720" as="sourcePoint" />
            <mxPoint x="590" y="950" as="targetPoint" />
          </mxGeometry>
        </mxCell>
        <mxCell id="DW2UDxUGNQBwvL69CKuD-2" value="" style="endArrow=none;html=1;rounded=0;exitX=0.5;exitY=1;exitDx=0;exitDy=0;entryX=0.428;entryY=-0.046;entryDx=0;entryDy=0;entryPerimeter=0;" parent="1" source="Fzz86vDRq51pPCUExh2M-1" target="oVjClMRvE_nj_OxCvAcx-2" edge="1">
          <mxGeometry relative="1" as="geometry">
            <mxPoint x="440" y="720" as="sourcePoint" />
            <mxPoint x="699" y="900" as="targetPoint" />
          </mxGeometry>
        </mxCell>
        <mxCell id="oVjClMRvE_nj_OxCvAcx-1" value="" style="endArrow=none;html=1;rounded=0;entryX=0;entryY=0.5;entryDx=0;entryDy=0;exitX=1;exitY=0.5;exitDx=0;exitDy=0;" parent="1" source="J90l-yEcoeT0y28Pm198-1" target="Fzz86vDRq51pPCUExh2M-1" edge="1">
          <mxGeometry relative="1" as="geometry">
            <mxPoint x="440" y="720" as="sourcePoint" />
            <mxPoint x="600" y="720" as="targetPoint" />
          </mxGeometry>
        </mxCell>
        <mxCell id="oVjClMRvE_nj_OxCvAcx-2" value="Права рабочего места" style="whiteSpace=wrap;html=1;align=center;" parent="1" vertex="1">
          <mxGeometry x="640" y="930" width="150" height="40" as="geometry" />
        </mxCell>
        <mxCell id="Mbp3hf37lqQ2KXfoYZNM-1" value="Производственная площадка" style="whiteSpace=wrap;html=1;align=center;" parent="1" vertex="1">
          <mxGeometry x="40" y="1030" width="190" height="40" as="geometry" />
        </mxCell>
        <mxCell id="tBak712CfEyrIliq2dV2-1" value="" style="endArrow=none;html=1;rounded=0;exitX=0.5;exitY=0;exitDx=0;exitDy=0;entryX=0.5;entryY=1;entryDx=0;entryDy=0;" parent="1" source="Mbp3hf37lqQ2KXfoYZNM-1" target="J90l-yEcoeT0y28Pm198-6" edge="1">
          <mxGeometry relative="1" as="geometry">
            <mxPoint x="420" y="930" as="sourcePoint" />
            <mxPoint x="580" y="930" as="targetPoint" />
          </mxGeometry>
        </mxCell>
        <mxCell id="g9vex7FKd3uV9aVftAKN-1" value="Разрешенный доступ&amp;nbsp;" style="whiteSpace=wrap;html=1;align=center;" parent="1" vertex="1">
          <mxGeometry x="325" y="1030" width="190" height="40" as="geometry" />
        </mxCell>
        <mxCell id="g9vex7FKd3uV9aVftAKN-2" value="Пользователь" style="whiteSpace=wrap;html=1;align=center;" parent="1" vertex="1">
          <mxGeometry x="640" y="1030" width="120" height="40" as="geometry" />
        </mxCell>
        <mxCell id="g9vex7FKd3uV9aVftAKN-3" value="Маска подсети&lt;br&gt;Адрес сети" style="whiteSpace=wrap;html=1;align=center;" parent="1" vertex="1">
          <mxGeometry x="325" y="1100" width="190" height="40" as="geometry" />
        </mxCell>
        <mxCell id="g9vex7FKd3uV9aVftAKN-4" value="" style="endArrow=none;html=1;rounded=0;exitX=1;exitY=0.5;exitDx=0;exitDy=0;entryX=0;entryY=0.5;entryDx=0;entryDy=0;" parent="1" source="g9vex7FKd3uV9aVftAKN-1" target="g9vex7FKd3uV9aVftAKN-2" edge="1">
          <mxGeometry relative="1" as="geometry">
            <mxPoint x="420" y="1200" as="sourcePoint" />
            <mxPoint x="580" y="1200" as="targetPoint" />
          </mxGeometry>
        </mxCell>
        <mxCell id="DdHMfR_BCIdECnrakQdh-1" value="" style="endArrow=none;html=1;rounded=0;entryX=0.5;entryY=0;entryDx=0;entryDy=0;" parent="1" source="g9vex7FKd3uV9aVftAKN-1" target="g9vex7FKd3uV9aVftAKN-3" edge="1">
          <mxGeometry relative="1" as="geometry">
            <mxPoint x="420" y="1200" as="sourcePoint" />
            <mxPoint x="580" y="1200" as="targetPoint" />
          </mxGeometry>
        </mxCell>
        <mxCell id="7PPwZNhrI_eCUy_qwpQ--1" value="" style="endArrow=none;html=1;rounded=0;entryX=0.5;entryY=0;entryDx=0;entryDy=0;exitX=0.5;exitY=1;exitDx=0;exitDy=0;" parent="1" source="J90l-yEcoeT0y28Pm198-9" target="g9vex7FKd3uV9aVftAKN-1" edge="1">
          <mxGeometry relative="1" as="geometry">
            <mxPoint x="450" y="1040" as="sourcePoint" />
            <mxPoint x="580" y="1080" as="targetPoint" />
          </mxGeometry>
        </mxCell>
        <mxCell id="C946RCroiZLmiduoDPJo-2" value="" style="endArrow=none;html=1;rounded=0;exitX=1;exitY=0.5;exitDx=0;exitDy=0;entryX=0;entryY=0.5;entryDx=0;entryDy=0;" parent="1" source="Mbp3hf37lqQ2KXfoYZNM-1" target="g9vex7FKd3uV9aVftAKN-1" edge="1">
          <mxGeometry relative="1" as="geometry">
            <mxPoint x="420" y="1080" as="sourcePoint" />
            <mxPoint x="580" y="1080" as="targetPoint" />
          </mxGeometry>
        </mxCell>
        <mxCell id="VvkzZxFvBn8VilDt4Q2F-1" value="Версия 0.0.1" style="text;html=1;align=center;verticalAlign=middle;whiteSpace=wrap;rounded=0;fontStyle=1" parent="1" vertex="1">
          <mxGeometry y="1120" width="100" height="30" as="geometry" />
        </mxCell>
        <mxCell id="VvkzZxFvBn8VilDt4Q2F-2" value="" style="endArrow=none;html=1;rounded=0;exitX=0;exitY=0.5;exitDx=0;exitDy=0;" parent="1" source="GXTz7LjhXrPer3yg0kRa-1" edge="1">
          <mxGeometry width="50" height="50" relative="1" as="geometry">
            <mxPoint x="580" y="130" as="sourcePoint" />
            <mxPoint x="550" y="140" as="targetPoint" />
          </mxGeometry>
        </mxCell>
      </root>
    </mxGraphModel>
  </diagram>
</mxfile>
